<svg
   xmlns="http://www.w3.org/2000/svg"
   width="103.93266"
   height="64.023788"
   viewBox="0 0 103.93266 64.023788">
  <g
     transform="translate(-196.06734,-61.207833)">
    <path
       d="m 241.143,61.998 c -2.043,0.463 -5.129,1.581 -6.857,2.485 -12.672,6.628 -14.646,7.504 -19.306,8.565 -2.739,0.623 -7.166,1.304 -9.837,1.513 -9.042,0.707 -9.253,1.16 -9.028,19.455 l 0.171,13.964 1.859,1.858 c 1.768,1.767 2.13,1.876 7.428,2.239 9.883,0.676 13.125,1.79 27.866,9.57 9.418,4.971 20.958,4.759 30.275,-0.556 10.654,-6.078 17.378,-8.382 26,-8.913 C 299.93,111.55 300,111.419 300,92.963 300,75.476 299.866,75.191 291.326,74.542 281.409,73.788 274.89,71.755 265.905,66.613 257.058,61.55 249.414,60.125 241.143,61.998 m 17.315,8.718 c 15.728,7.377 19.375,27.767 7.159,40.026 -12.097,12.14 -32.131,8.803 -39.755,-6.622 -10.188,-20.616 11.806,-43.155 32.596,-33.404 m -43.05,11.83 c 1.353,1.631 0.027,2.025 -6.809,2.025 -6.856,0 -8.425,-0.517 -6.726,-2.216 1.017,-1.016 12.669,-0.852 13.535,0.191 m 79.163,0.597 c 0,1.072 -0.434,1.153 -7,1.303 -7.053,0.162 -8.583,-0.387 -6.601,-2.368 1.084,-1.084 13.601,-0.105 13.601,1.065 m -78.899,6.381 c 0.64,1.669 -0.476,1.947 -7.149,1.781 -6.273,-0.156 -6.53,-0.211 -6.706,-1.448 -0.246,-1.734 13.193,-2.057 13.855,-0.333 M 294.571,90 c 0,1.91 -13.627,1.752 -13.899,-0.161 l -0.185,-1.303 7.042,0.16 c 6.608,0.151 7.042,0.232 7.042,1.304 m -79.142,5.714 c 1.633,1.969 -0.251,2.62 -7.078,2.447 -6.416,-0.163 -8.556,-1.165 -5.979,-2.798 1.423,-0.902 12.258,-0.61 13.057,0.351 m 79.082,0.445 c 1.055,1.697 -0.59,2.141 -7.361,1.985 -6.368,-0.146 -8.474,-1.139 -5.921,-2.791 1.536,-0.994 12.579,-0.323 13.282,0.806 m -78.856,6.464 c 0.65,1.693 -0.282,1.948 -7.117,1.948 -6.837,0 -8.341,-0.578 -6.443,-2.476 0.894,-0.893 13.198,-0.414 13.56,0.528 m 78.916,0.52 c 0,1.072 -0.434,1.153 -7,1.303 -7.053,0.162 -8.583,-0.387 -6.601,-2.368 1.084,-1.084 13.601,-0.105 13.601,1.065"
 />
  </g>
</svg>
